<svg width="31" height="24" viewBox="0 0 31 24" fill="none" xmlns="http://www.w3.org/2000/svg">
<path d="M5.62796 23.947V22.3542C5.62796 21.7434 5.2562 21.3453 4.61898 21.3453C4.30043 21.3453 3.95528 21.4515 3.71631 21.7966C3.53055 21.5046 3.26509 21.3453 2.86684 21.3453C2.60126 21.3453 2.33593 21.4249 2.12344 21.7169V21.3984H1.56592V23.947H2.12344V22.5399C2.12344 22.0887 2.36241 21.8762 2.73417 21.8762C3.10569 21.8762 3.29169 22.1152 3.29169 22.5399V23.947H3.84922V22.5399C3.84922 22.0887 4.11455 21.8762 4.45971 21.8762C4.83147 21.8762 5.01723 22.1152 5.01723 22.5399V23.947H5.62796ZM13.8845 21.3984H12.9819V20.6285H12.4244V21.3984H11.92V21.9027H12.4243V23.071C12.4243 23.6551 12.6633 24.0001 13.3005 24.0001C13.5394 24.0001 13.8048 23.9205 13.9908 23.8144L13.8314 23.3364C13.6721 23.4426 13.4864 23.4692 13.3536 23.4692C13.0881 23.4692 12.9819 23.3099 12.9819 23.0443V21.9027H13.8845V21.3984ZM18.6102 21.3452C18.2917 21.3452 18.0793 21.5046 17.9465 21.7169V21.3984H17.389V23.947H17.9465V22.5134C17.9465 22.0887 18.1323 21.8497 18.4774 21.8497C18.5836 21.8497 18.7164 21.8763 18.8226 21.9028L18.9819 21.3719C18.8757 21.3453 18.7164 21.3453 18.6102 21.3453M11.4686 21.6109C11.2031 21.425 10.8314 21.3454 10.4332 21.3454C9.79607 21.3454 9.37134 21.664 9.37134 22.1684C9.37134 22.5932 9.68989 22.8321 10.2474 22.9118L10.5129 22.9384C10.8049 22.9914 10.9642 23.0711 10.9642 23.2039C10.9642 23.3896 10.7518 23.5224 10.3801 23.5224C10.0084 23.5224 9.71637 23.3896 9.53049 23.257L9.26504 23.6817C9.5571 23.8941 9.95535 24.0002 10.3535 24.0002C11.0969 24.0002 11.5217 23.6552 11.5217 23.1773C11.5217 22.7259 11.1766 22.4869 10.6455 22.4074L10.3801 22.3808C10.1411 22.3542 9.95535 22.3012 9.95535 22.1419C9.95535 21.956 10.1411 21.8498 10.4332 21.8498C10.7518 21.8498 11.0704 21.9825 11.2297 22.0622L11.4686 21.6109ZM26.2829 21.3454C25.9642 21.3454 25.7518 21.5047 25.619 21.7171V21.3985H25.0615V23.9471H25.619V22.5136C25.619 22.0888 25.8049 21.8498 26.15 21.8498C26.2563 21.8498 26.389 21.8765 26.4952 21.9029L26.6545 21.372C26.5483 21.3454 26.389 21.3454 26.2829 21.3454ZM19.1678 22.6728C19.1678 23.4427 19.6987 24.0002 20.5218 24.0002C20.8934 24.0002 21.1589 23.9207 21.4243 23.7083L21.1589 23.257C20.9465 23.4162 20.7341 23.4958 20.4952 23.4958C20.0438 23.4958 19.7253 23.1773 19.7253 22.6728C19.7253 22.195 20.0438 21.8763 20.4952 21.8498C20.7341 21.8498 20.9465 21.9294 21.1589 22.0888L21.4243 21.6375C21.1589 21.425 20.8934 21.3454 20.5218 21.3454C19.6987 21.3454 19.1678 21.9029 19.1678 22.6728ZM24.3182 22.6728V21.3985H23.7607V21.7171C23.5748 21.4782 23.3094 21.3454 22.9642 21.3454C22.2474 21.3454 21.6899 21.9029 21.6899 22.6728C21.6899 23.4427 22.2474 24.0002 22.9642 24.0002C23.3359 24.0002 23.6014 23.8676 23.7607 23.6286V23.9471H24.3182V22.6728ZM22.2739 22.6728C22.2739 22.2215 22.566 21.8498 23.0438 21.8498C23.4951 21.8498 23.8138 22.195 23.8138 22.6728C23.8138 23.1242 23.4951 23.4958 23.0438 23.4958C22.566 23.4692 22.2739 23.1242 22.2739 22.6728ZM15.6103 21.3454C14.8669 21.3454 14.3358 21.8763 14.3358 22.6728C14.3358 23.4693 14.8667 24.0002 15.6367 24.0002C16.0084 24.0002 16.3801 23.8941 16.6722 23.6552L16.4066 23.257C16.1943 23.4162 15.9288 23.5224 15.6634 23.5224C15.3182 23.5224 14.973 23.3631 14.8933 22.9117H16.7784V22.6994C16.805 21.8763 16.3272 21.3454 15.6103 21.3454ZM15.6101 21.8232C15.9552 21.8232 16.1943 22.0357 16.2472 22.434H14.9198C14.9729 22.0888 15.2119 21.8232 15.6101 21.8232ZM29.442 22.6728V20.3896H28.8845V21.7171C28.6986 21.4782 28.4331 21.3454 28.088 21.3454C27.3712 21.3454 26.8137 21.9029 26.8137 22.6728C26.8137 23.4427 27.3712 24.0002 28.088 24.0002C28.4597 24.0002 28.7252 23.8676 28.8845 23.6286V23.9471H29.442V22.6728ZM27.3978 22.6728C27.3978 22.2215 27.6897 21.8498 28.1677 21.8498C28.619 21.8498 28.9376 22.195 28.9376 22.6728C28.9376 23.1242 28.619 23.4958 28.1677 23.4958C27.6897 23.4692 27.3978 23.1242 27.3978 22.6728ZM8.76049 22.6728V21.3985H8.20296V21.7171C8.01708 21.4782 7.75162 21.3454 7.40647 21.3454C6.68967 21.3454 6.13215 21.9029 6.13215 22.6728C6.13215 23.4427 6.68967 24.0002 7.40647 24.0002C7.77823 24.0002 8.04369 23.8676 8.20296 23.6286V23.9471H8.76049V22.6728ZM6.68967 22.6728C6.68967 22.2215 6.98174 21.8498 7.45956 21.8498C7.9109 21.8498 8.22957 22.195 8.22957 22.6728C8.22957 23.1242 7.9109 23.4958 7.45956 23.4958C6.98174 23.4692 6.68967 23.1242 6.68967 22.6728Z" fill="black"/>
<path d="M11.2837 2.04395H19.6465V17.0705H11.2837V2.04395Z" fill="#FF5F00"/>
<path d="M11.8143 9.55756C11.8143 6.5045 13.2478 3.79647 15.4513 2.04421C13.832 0.769888 11.7878 0 9.55768 0C4.27429 0 0 4.27429 0 9.55756C0 14.8407 4.27429 19.1151 9.55756 19.1151C11.7876 19.1151 13.8319 18.3452 15.4513 17.0708C13.2478 15.3451 11.8143 12.6106 11.8143 9.55756Z" fill="#EB001B"/>
<path d="M30.9294 9.55756C30.9294 14.8407 26.6551 19.1151 21.3718 19.1151C19.1417 19.1151 17.0975 18.3452 15.478 17.0708C17.7081 15.3187 19.1152 12.6106 19.1152 9.55756C19.1152 6.5045 17.6815 3.79647 15.478 2.04421C17.0974 0.769888 19.1417 0 21.3718 0C26.6551 0 30.9294 4.3009 30.9294 9.55756Z" fill="#F79E1B"/>
</svg>
