<svg width="75" height="24" viewBox="0 0 75 24" fill="none" xmlns="http://www.w3.org/2000/svg">
<path d="M38.4372 7.67252C38.3948 11.0158 41.4167 12.8814 43.6931 13.9907C46.0319 15.1288 46.8175 15.8586 46.8082 16.8765C46.7908 18.434 44.9427 19.1215 43.2132 19.1482C40.196 19.1949 38.4416 18.3336 37.0469 17.6821L35.9599 22.7682C37.3593 23.413 39.9504 23.9753 42.6372 24C48.9444 24 53.0707 20.8866 53.093 16.0595C53.1177 9.93323 44.6192 9.59414 44.6773 6.85586C44.6973 6.02555 45.4896 5.1395 47.2257 4.91421C48.0851 4.80041 50.4572 4.71331 53.1467 5.95181L54.2023 1.03092C52.756 0.504284 50.8971 0 48.5827 0C42.6462 0 38.4709 3.15576 38.4372 7.67252ZM64.3455 0.423864C63.1938 0.423864 62.2232 1.09566 61.7901 2.12658L52.7807 23.6386H59.0832L60.3373 20.1724H68.0389L68.7664 23.6386H74.3214L69.4739 0.423864H64.3455ZM65.2272 6.69502L67.046 15.4124H62.0647L65.2272 6.69502ZM30.7958 0.424154L25.8278 23.6383H31.8336L36.7992 0.423574L30.7958 0.424154ZM21.9112 0.424154L15.66 16.2247L13.1314 2.78967C12.8347 1.28988 11.6629 0.423864 10.3617 0.423864H0.143127L0 1.09798C2.09784 1.5532 4.48135 2.28741 5.92539 3.07302C6.80911 3.55291 7.06111 3.97242 7.35143 5.11279L12.1408 23.6386H18.4874L28.2177 0.423864L21.9112 0.424154Z" fill="url(#paint0_linear_291_9399)"/>
<defs>
<linearGradient id="paint0_linear_291_9399" x1="3416.85" y1="72.144" x2="3486.32" y2="-2392.69" gradientUnits="userSpaceOnUse">
<stop stop-color="#222357"/>
<stop offset="1" stop-color="#254AA5"/>
</linearGradient>
</defs>
</svg>
