<svg width="36" height="36" viewBox="0 0 36 36" fill="none" xmlns="http://www.w3.org/2000/svg">
<path d="M17.8845 11.8322C14.6249 11.8322 11.9648 14.4924 11.9648 17.7521C11.9648 21.0118 14.6249 23.672 17.8845 23.672C21.1442 23.672 23.8043 21.0118 23.8043 17.7521C23.8043 14.4924 21.1442 11.8322 17.8845 11.8322ZM35.6394 17.7521C35.6394 15.3007 35.6616 12.8714 35.524 10.4244C35.3863 7.58215 34.7379 5.05965 32.6596 2.98125C30.5768 0.898408 28.0587 0.254459 25.2165 0.116788C22.7651 -0.0208842 20.3359 0.00132096 17.889 0.00132096C15.4376 0.00132096 13.0084 -0.0208842 10.5614 0.116788C7.71922 0.254459 5.19676 0.902849 3.1184 2.98125C1.0356 5.06409 0.391662 7.58215 0.253992 10.4244C0.116323 12.8759 0.138528 15.3051 0.138528 17.7521C0.138528 20.1991 0.116323 22.6328 0.253992 25.0798C0.391662 27.9221 1.04004 30.4446 3.1184 32.523C5.2012 34.6058 7.71922 35.2497 10.5614 35.3874C13.0128 35.5251 15.442 35.5029 17.889 35.5029C20.3404 35.5029 22.7696 35.5251 25.2165 35.3874C28.0587 35.2497 30.5812 34.6014 32.6596 32.523C34.7424 30.4401 35.3863 27.9221 35.524 25.0798C35.6661 22.6328 35.6394 20.2035 35.6394 17.7521ZM17.8845 26.8606C12.8441 26.8606 8.77616 22.7927 8.77616 17.7521C8.77616 12.7115 12.8441 8.64356 17.8845 8.64356C22.925 8.64356 26.9929 12.7115 26.9929 17.7521C26.9929 22.7927 22.925 26.8606 17.8845 26.8606ZM27.366 10.3978C26.1891 10.3978 25.2387 9.44738 25.2387 8.27051C25.2387 7.09364 26.1891 6.14326 27.366 6.14326C28.5428 6.14326 29.4932 7.09364 29.4932 8.27051C29.4935 8.54996 29.4387 8.82674 29.332 9.08499C29.2252 9.34324 29.0685 9.57788 28.8709 9.77549C28.6733 9.97309 28.4387 10.1298 28.1804 10.2366C27.9222 10.3433 27.6454 10.3981 27.366 10.3978Z" fill="white"/>
</svg>
