<svg width="34" height="34" viewBox="0 0 34 34" fill="none" xmlns="http://www.w3.org/2000/svg">
<path d="M28.2559 10.5821C27.4504 10.9417 26.5803 11.1862 25.6454 11.3156C26.6234 10.7403 27.2922 9.89897 27.6518 8.79151C26.7169 9.33805 25.7533 9.7048 24.7609 9.89178C23.8836 8.94253 22.7833 8.46791 21.4601 8.46791C20.2089 8.46791 19.141 8.91017 18.2564 9.79469C17.3719 10.6792 16.9296 11.7471 16.9296 12.9984C16.9296 13.4155 16.9656 13.7607 17.0375 14.0339C15.1822 13.9333 13.4419 13.4658 11.8167 12.6316C10.1915 11.7975 8.81073 10.6828 7.67452 9.28771C7.25742 10.0068 7.04888 10.7691 7.04888 11.5745C7.04888 13.2141 7.70328 14.4726 9.01209 15.3499C8.33611 15.3355 7.61699 15.1486 6.85472 14.789V14.8322C6.85472 15.9108 7.21428 16.8709 7.9334 17.7123C8.65253 18.5536 9.53705 19.075 10.587 19.2764C10.1699 19.3914 9.80313 19.4489 9.48671 19.4489C9.29974 19.4489 9.01928 19.4202 8.64534 19.3626C8.94737 20.2687 9.48312 21.0166 10.2526 21.6063C11.022 22.196 11.8958 22.498 12.8738 22.5124C11.2054 23.8068 9.3285 24.454 7.24304 24.454C6.8691 24.454 6.50954 24.4325 6.16436 24.3893C8.29296 25.7413 10.6085 26.4173 13.1111 26.4173C14.7219 26.4173 16.2321 26.162 17.6416 25.6514C19.0511 25.1408 20.2592 24.4576 21.266 23.6019C22.2727 22.7461 23.1393 21.7609 23.8656 20.6463C24.5919 19.5316 25.1313 18.3667 25.4836 17.1513C25.836 15.936 26.0122 14.7243 26.0122 13.5162C26.0122 13.2573 26.005 13.0631 25.9906 12.9337C26.8967 12.2865 27.6518 11.5026 28.2559 10.5821ZM33.7787 6.39683V27.1076C33.7787 28.8191 33.1711 30.2826 31.9558 31.4979C30.7404 32.7132 29.277 33.3209 27.5655 33.3209H6.85472C5.1432 33.3209 3.67978 32.7132 2.46446 31.4979C1.24914 30.2826 0.641479 28.8191 0.641479 27.1076V6.39683C0.641479 4.68531 1.24914 3.22189 2.46446 2.00657C3.67978 0.791254 5.1432 0.183594 6.85472 0.183594H27.5655C29.277 0.183594 30.7404 0.791254 31.9558 2.00657C33.1711 3.22189 33.7787 4.68531 33.7787 6.39683Z" fill="white"/>
</svg>
