<svg width="24" height="18" viewBox="0 0 24 18" fill="none" xmlns="http://www.w3.org/2000/svg">
<path d="M4.14286 17V2.40267C4.14275 2.09243 4.26409 1.79095 4.48782 1.54558C4.71155 1.30021 5.025 1.12483 5.37894 1.04701C5.73288 0.969185 6.10726 0.993314 6.44329 1.11561C6.77931 1.2379 7.05795 1.45143 7.23543 1.72267L16.7646 16.2773C16.9421 16.5486 17.2207 16.7621 17.5567 16.8844C17.8927 17.0067 18.2671 17.0308 18.6211 16.953C18.975 16.8752 19.2885 16.6998 19.5122 16.4544C19.7359 16.209 19.8573 15.9076 19.8571 15.5973V1M1 6.33333H23M1 11.6667H23" stroke="black" stroke-width="2" stroke-linecap="round" stroke-linejoin="round"/>
</svg>
