<svg width="31" height="23" viewBox="0 0 31 23" fill="none" xmlns="http://www.w3.org/2000/svg">
<path d="M5.84127 21.1171V3.27589C5.84113 2.89672 5.98944 2.52825 6.26289 2.22834C6.53634 1.92844 6.91944 1.7141 7.35204 1.61898C7.78463 1.52386 8.24221 1.55335 8.65291 1.70282C9.0636 1.85229 9.40416 2.11328 9.62108 2.44478L21.2678 20.2338C21.4847 20.5653 21.8253 20.8263 22.236 20.9758C22.6467 21.1253 23.1043 21.1547 23.5369 21.0596C23.9694 20.9645 24.3526 20.7502 24.626 20.4503C24.8995 20.1504 25.0478 19.7819 25.0476 19.4027V1.56152M2 8.08004H28.8889M2 14.5986H28.8889" stroke="black" stroke-width="2.44444" stroke-linecap="round" stroke-linejoin="round"/>
</svg>
