<svg width="15" height="14" viewBox="0 0 15 14" fill="none" xmlns="http://www.w3.org/2000/svg">
<path d="M2.99984 12.5V2.46433C2.99977 2.25105 3.07055 2.04378 3.20106 1.87509C3.33157 1.70639 3.51442 1.58582 3.72089 1.53232C3.92735 1.47881 4.14574 1.4954 4.34176 1.57948C4.53777 1.66356 4.70031 1.81036 4.80384 1.99683L10.3625 12.0032C10.466 12.1896 10.6286 12.3364 10.8246 12.4205C11.0206 12.5046 11.239 12.5212 11.4455 12.4677C11.6519 12.4142 11.8348 12.2936 11.9653 12.1249C12.0958 11.9562 12.1666 11.749 12.1665 11.5357V1.5M1.1665 5.16667H13.9998M1.1665 8.83333H13.9998" stroke="#4E4E4C" stroke-width="1.5" stroke-linecap="round" stroke-linejoin="round"/>
</svg>
