<svg width="18" height="17" viewBox="0 0 18 17" fill="none" xmlns="http://www.w3.org/2000/svg">
<path d="M4.0087 15.4388V2.6106C4.00863 2.33797 4.08618 2.07303 4.22918 1.85739C4.37217 1.64175 4.57251 1.48764 4.79872 1.41924C5.02494 1.35085 5.26422 1.37205 5.47898 1.47953C5.69375 1.587 5.87183 1.77465 5.98527 2.01301L12.0756 14.8038C12.1891 15.0421 12.3672 15.2298 12.5819 15.3372C12.7967 15.4447 13.036 15.4659 13.2622 15.3975C13.4884 15.3291 13.6887 15.175 13.8317 14.9594C13.9747 14.7437 14.0523 14.4788 14.0522 14.2062V1.37793M2 6.0649H16.0609M2 10.7519H16.0609" stroke="url(#paint0_linear_248_10211)" stroke-width="2.16322" stroke-linecap="round" stroke-linejoin="round"/>
<defs>
<linearGradient id="paint0_linear_248_10211" x1="5.25177" y1="1.37793" x2="15.941" y2="10.9161" gradientUnits="userSpaceOnUse">
<stop stop-color="#F97F51"/>
<stop offset="1" stop-color="#092C4C"/>
</linearGradient>
</defs>
</svg>
