<svg width="34" height="34" viewBox="0 0 34 34" fill="none" xmlns="http://www.w3.org/2000/svg">
<path d="M7.27235 0.183594C3.70134 0.183594 0.778687 3.10619 0.778687 6.67726V26.8282C0.778687 30.3993 3.70128 33.3209 7.27235 33.3209H27.4233C30.9944 33.3209 33.9159 30.3993 33.9159 26.8282V6.67726C33.9159 3.10625 30.9944 0.183594 27.4233 0.183594H7.27235ZM8.90561 5.65191C10.6178 5.65191 11.6725 6.77595 11.705 8.25349C11.705 9.69841 10.6178 10.854 8.87249 10.854H8.84036C7.16073 10.854 6.07511 9.69848 6.07511 8.25349C6.07511 6.77598 7.19358 5.65191 8.90557 5.65191H8.90561ZM23.6608 12.5577C26.9537 12.5577 29.4222 14.71 29.4222 19.3352V27.9695H24.4179V19.9141C24.4179 17.8898 23.6936 16.5088 21.8826 16.5088C20.5 16.5088 19.6759 17.4396 19.3141 18.3388C19.1819 18.6605 19.1494 19.1098 19.1494 19.5599V27.9695H14.1451C14.1451 27.9695 14.2107 14.3238 14.1451 12.9109H19.1505V15.0433C19.8155 14.0173 21.005 12.5577 23.6608 12.5577V12.5577ZM6.37029 12.912H11.3746V27.9696H6.37029V12.912Z" fill="white"/>
</svg>
