<svg width="34" height="34" viewBox="0 0 34 34" fill="none" xmlns="http://www.w3.org/2000/svg">
<path d="M6.05066 0.183594C2.69886 0.183594 0 2.88246 0 6.23426V27.2702C0 30.622 2.69886 33.3209 6.05066 33.3209H17.452V20.3663H14.0264V15.7022H17.452V11.7174C17.452 8.5868 19.476 5.71235 24.1384 5.71235C26.0262 5.71235 27.4221 5.89357 27.4221 5.89357L27.3124 10.2491C27.3124 10.2491 25.8887 10.2356 24.3352 10.2356C22.6538 10.2356 22.3842 11.0103 22.3842 12.2964V15.7022H27.4459L27.2254 20.3663H22.3842V33.3209H27.0866C30.4384 33.3209 33.1373 30.6221 33.1373 27.2703V6.23429C33.1373 2.88249 30.4384 0.183627 27.0866 0.183627H6.05063L6.05066 0.183594Z" fill="white"/>
</svg>
