<svg width="19" height="16" viewBox="0 0 19 16" fill="none" xmlns="http://www.w3.org/2000/svg">
<path d="M3.33333 15V2.22733C3.33325 1.95588 3.42334 1.69209 3.58944 1.47738C3.75554 1.26268 3.98826 1.10923 4.25103 1.04113C4.51381 0.973037 4.79176 0.99415 5.04123 1.10116C5.2907 1.20816 5.49757 1.395 5.62933 1.63233L12.704 14.3677C12.8358 14.605 13.0426 14.7918 13.2921 14.8988C13.5416 15.0059 13.8195 15.027 14.0823 14.9589C14.3451 14.8908 14.5778 14.7373 14.7439 14.5226C14.91 14.3079 15.0001 14.0441 15 13.7727V1M1 5.66667H17.3333M1 10.3333H17.3333" stroke="black" stroke-width="2" stroke-linecap="round" stroke-linejoin="round"/>
</svg>
