<svg width="18" height="18" viewBox="0 0 18 18" fill="none" xmlns="http://www.w3.org/2000/svg">
<path d="M9.91127 2.72532L11.1804 5.26349C11.3534 5.61682 11.8149 5.95572 12.2043 6.02062L14.5045 6.40279C15.9755 6.64795 16.3216 7.71514 15.2616 8.76791L13.4734 10.5562C13.1705 10.859 13.0047 11.4431 13.0984 11.8613L13.6104 14.075C14.0142 15.8272 13.084 16.505 11.5337 15.5893L9.37767 14.313C8.98829 14.0822 8.34654 14.0822 7.94995 14.313L5.79394 15.5893C4.25085 16.505 3.31345 15.82 3.71726 14.075L4.22922 11.8613C4.32296 11.4431 4.15711 10.859 3.85426 10.5562L2.066 8.76791C1.01323 7.71514 1.35214 6.64795 2.82313 6.40279L5.12335 6.02062C5.50551 5.95572 5.967 5.61682 6.14006 5.26349L7.40915 2.72532C8.10138 1.34807 9.22625 1.34807 9.91127 2.72532Z" fill="#F7D421"/>
</svg>
