<svg width="18" height="18" viewBox="0 0 18 18" fill="none" xmlns="http://www.w3.org/2000/svg">
<path d="M10.0123 2.72532L11.2814 5.26349C11.4545 5.61682 11.916 5.95572 12.3054 6.02062L14.6056 6.40279C16.0766 6.64795 16.4227 7.71514 15.3627 8.76791L13.5744 10.5562C13.2716 10.859 13.1057 11.4431 13.1995 11.8613L13.7114 14.075C14.1152 15.8272 13.1851 16.505 11.6348 15.5893L9.47875 14.313C9.08937 14.0822 8.44761 14.0822 8.05102 14.313L5.89502 15.5893C4.35192 16.505 3.41453 15.82 3.81833 14.075L4.33029 11.8613C4.42403 11.4431 4.25818 10.859 3.95533 10.5562L2.16707 8.76791C1.11431 7.71514 1.45321 6.64795 2.9242 6.40279L5.22442 6.02062C5.60659 5.95572 6.06808 5.61682 6.24113 5.26349L7.51022 2.72532C8.20245 1.34807 9.32732 1.34807 10.0123 2.72532Z" fill="#F7D421"/>
</svg>
