<svg width="18" height="18" viewBox="0 0 18 18" fill="none" xmlns="http://www.w3.org/2000/svg">
<path d="M10.3607 2.72532L11.6298 5.26349C11.8029 5.61682 12.2644 5.95572 12.6537 6.02062L14.954 6.40279C16.4249 6.64795 16.7711 7.71514 15.7111 8.76791L13.9228 10.5562C13.62 10.859 13.4541 11.4431 13.5479 11.8613L14.0598 14.075C14.4636 15.8272 13.5334 16.505 11.9831 15.5893L9.82714 14.313C9.43776 14.0822 8.796 14.0822 8.39941 14.313L6.24341 15.5893C4.70031 16.505 3.76292 15.82 4.16672 14.075L4.67868 11.8613C4.77242 11.4431 4.60657 10.859 4.30372 10.5562L2.51546 8.76791C1.4627 7.71514 1.8016 6.64795 3.27259 6.40279L5.57281 6.02062C5.95498 5.95572 6.41646 5.61682 6.58952 5.26349L7.85861 2.72532C8.55084 1.34807 9.67571 1.34807 10.3607 2.72532Z" fill="#F7D421"/>
</svg>
