<svg width="18" height="18" viewBox="0 0 18 18" fill="none" xmlns="http://www.w3.org/2000/svg">
<path d="M10.5629 2.72532L11.832 5.26349C12.005 5.61682 12.4665 5.95572 12.8559 6.02062L15.1561 6.40279C16.6271 6.64795 16.9732 7.71514 15.9132 8.76791L14.125 10.5562C13.8221 10.859 13.6563 11.4431 13.75 11.8613L14.262 14.075C14.6658 15.8272 13.7356 16.505 12.1853 15.5893L10.0293 14.313C9.63991 14.0822 8.99815 14.0822 8.60156 14.313L6.44556 15.5893C4.90246 16.505 3.96507 15.82 4.36887 14.075L4.88083 11.8613C4.97457 11.4431 4.80872 10.859 4.50587 10.5562L2.71761 8.76791C1.66484 7.71514 2.00375 6.64795 3.47474 6.40279L5.77496 6.02062C6.15713 5.95572 6.61861 5.61682 6.79167 5.26349L8.06076 2.72532C8.75299 1.34807 9.87786 1.34807 10.5629 2.72532Z" fill="#F2F1EE"/>
</svg>
