<svg width="18" height="18" viewBox="0 0 18 18" fill="none" xmlns="http://www.w3.org/2000/svg">
<path d="M10.4618 2.72532L11.7309 5.26349C11.9039 5.61682 12.3654 5.95572 12.7548 6.02062L15.055 6.40279C16.526 6.64795 16.8721 7.71514 15.8122 8.76791L14.0239 10.5562C13.7211 10.859 13.5552 11.4431 13.6489 11.8613L14.1609 14.075C14.5647 15.8272 13.6345 16.505 12.0842 15.5893L9.92821 14.313C9.53883 14.0822 8.89708 14.0822 8.50049 14.313L6.34448 15.5893C4.80139 16.505 3.86399 15.82 4.26779 14.075L4.77975 11.8613C4.87349 11.4431 4.70765 10.859 4.4048 10.5562L2.61654 8.76791C1.56377 7.71514 1.90267 6.64795 3.37366 6.40279L5.67388 6.02062C6.05605 5.95572 6.51754 5.61682 6.6906 5.26349L7.95968 2.72532C8.65191 1.34807 9.77679 1.34807 10.4618 2.72532Z" fill="#F7D421"/>
</svg>
